<svg id="color" enable-background="new 0 0 24 24" height="512" viewBox="0 0 24 24" width="512" xmlns="http://www.w3.org/2000/svg"><path d="m21.25 0h-18.5c-1.517 0-2.75 1.233-2.75 2.75v18.5c0 1.517 1.233 2.75 2.75 2.75h18.5c1.517 0 2.75-1.233 2.75-2.75v-18.5c0-1.517-1.233-2.75-2.75-2.75z" fill="#f44336"/><path d="m18.711 17.363c.389.393.385 1.025-.008 1.414-.194.192-.449.289-.703.289-.258 0-.516-.099-.711-.297l-5.289-5.347-5.289 5.348c-.195.198-.453.296-.711.296-.254 0-.508-.097-.703-.289-.393-.389-.396-1.021-.008-1.414l5.305-5.363-5.198-5.255c-.388-.392-.384-1.025.008-1.414.392-.388 1.026-.386 1.414.008l5.182 5.239 5.289-5.348c.388-.394 1.021-.396 1.414-.008.393.389.396 1.021.008 1.414l-5.305 5.364z" fill="#fafafa"/></svg>